<?xml version="1.0" encoding="UTF-8" standalone="no"?>
<!-- Created with Keyshape -->
<svg xmlns="http://www.w3.org/2000/svg" width="436px" height="411px" viewBox="0 0 436 411">
    <style>
        @keyframes animate_do {
            0% {
                stroke-dashoffset: 1053.36px;
            }

            100% {
                stroke-dashoffset: 0px;
            }
        }

        @keyframes a0_o {
            0% {
                opacity: 0;
            }

            33.3333% {
                opacity: 1;
            }

            100% {
                opacity: 1;
            }
        }

        @keyframes a1_o {
            0% {
                opacity: 0;
            }

            33.3333% {
                opacity: 0;
            }

            66.6667% {
                opacity: 1;
            }

            100% {
                opacity: 1;
            }
        }

        @keyframes a2_o {
            0% {
                opacity: 0;
            }

            66.6667% {
                opacity: 0;
            }

            100% {
                opacity: 1;
            }
        }
    </style>
    <defs>
        <symbol id="Symbol-1" preserveAspectRatio="none" width="218.427" height="55.9861" viewBox="0 0 218.427 55.9861"
            overflow="visible">
            <text id="Planetary" font-family="Airbnb Cereal App" font-size="43" font-weight="400"
                letter-spacing="1.43333333" fill="#3F3D3D"
                transform="translate(159.466,225.493) translate(-159.466,-182.106)" style="white-space: pre;">Loading...
            </text>
        </symbol>
    </defs>
    <title>Group 2</title>
    <g id="Page-1" stroke="none" stroke-width="1" fill="none" fill-rule="evenodd"
        transform="translate(193.664,185.106) translate(-193.664,-185.106)">
        <g id="Artboard-Copy" transform="translate(193.664,185.106) translate(-490.664,-490.106)">
            <g id="Group-2" transform="translate(490.664,490.106) translate(-185.664,-182.106)">
                <g id="Group" transform="translate(207.096,176.071) rotate(-10) translate(-184.089,-146)">
                    <ellipse id="Oval" fill="#000000" rx="146" ry="146" transform="translate(186.929,146)" />
                    <path id="Path"
                        d="M6.17888,217.75C83.5849,205.266,153.804,184.224,216.837,154.623C279.87,125.022,330.318,89.3975,368.179,47.75"
                        stroke="#FFFFFF" stroke-width="27" stroke-linecap="round"
                        transform="translate(187.179,132.75) translate(-187.179,-132.75)" />
                    <path id="animate"
                        d="M33.4289,168C21.7622,172.333,15.2284,178.07,8.89508,183.07C-0.604919,190.57,-3.07112,208,13.4289,212C29.9289,216,114.429,201.5,216.837,154.623C319.246,107.746,358.429,64.5,358.429,50.5C358.429,36.5,347.429,32.5,338.429,32.5C332.429,32.5,320.096,35.3333,301.429,41"
                        stroke="#020202" stroke-width="16" stroke-linecap="round" stroke-linejoin="round"
                        stroke-dasharray="526.68" stroke-dashoffset="1053.36"
                        transform="translate(179.214,122.566) translate(-179.214,-122.566)"
                        style="animation: 0.6s linear infinite both animate_do;" />
                </g>
                <g transform="translate(210,364.606) translate(-109.213,-27.993)">
                    <path id="Planetary-2" d="M3.01,0L3.01,-30.53L8.256,-30.53L8.256,-4.687L21.199,-4.687L21.199,0Z"
                        fill="#3F3D3D" transform="translate(159.466,225.493) translate(-159.466,-182.106)" />
                    <path
                        d="M32.3556,-0.2365C33.7459,0.351167,35.2581,0.645,36.8921,0.645C38.5547,0.645,40.0956,0.351167,41.5146,-0.2365C42.9336,-0.824167,44.1662,-1.6555,45.2126,-2.7305C46.2589,-3.8055,47.0687,-5.06683,47.6421,-6.5145C48.2154,-7.96217,48.5021,-9.546,48.5021,-11.266C48.5021,-12.986,48.2154,-14.5627,47.6421,-15.996C47.0687,-17.4293,46.2661,-18.6835,45.2341,-19.7585C44.2021,-20.8335,42.9909,-21.6648,41.6006,-22.2525C40.2102,-22.8402,38.6981,-23.134,37.0641,-23.134C35.4014,-23.134,33.8606,-22.8402,32.4416,-22.2525C31.0226,-21.6648,29.7899,-20.8335,28.7436,-19.7585C27.6972,-18.6835,26.8874,-17.4222,26.3141,-15.9745C25.7407,-14.5268,25.4541,-12.9573,25.4541,-11.266C25.4541,-9.546,25.7407,-7.96217,26.3141,-6.5145C26.8874,-5.06683,27.6901,-3.8055,28.7221,-2.7305C29.7541,-1.6555,30.9652,-0.824167,32.3556,-0.2365ZM40.2891,-4.7945C39.3144,-4.1495,38.2107,-3.827,36.9781,-3.827C35.7454,-3.827,34.6417,-4.1495,33.6671,-4.7945C32.6924,-5.4395,31.9256,-6.321,31.3666,-7.439C30.8076,-8.557,30.5281,-9.83267,30.5281,-11.266C30.5281,-12.6993,30.8076,-13.9678,31.3666,-15.0715C31.9256,-16.1752,32.6924,-17.0495,33.6671,-17.6945C34.6417,-18.3395,35.7454,-18.662,36.9781,-18.662C38.2107,-18.662,39.3144,-18.3395,40.2891,-17.6945C41.2638,-17.0495,42.0306,-16.1752,42.5896,-15.0715C43.1486,-13.9678,43.4281,-12.6993,43.4281,-11.266C43.4281,-9.83267,43.1486,-8.557,42.5896,-7.439C42.0306,-6.321,41.2638,-5.4395,40.2891,-4.7945Z"
                        fill="#3F3D3D" fill-rule="evenodd"
                        transform="translate(159.466,225.493) translate(-159.466,-182.106)" />
                    <path
                        d="M57.9865,0.129C58.9469,0.473,60.0004,0.645,61.147,0.645C62.7524,0.645,64.157,0.315333,65.361,-0.344C66.565,-1.00333,67.468,-1.87767,68.07,-2.967L68.242,0L72.757,0L72.757,-13.717C72.757,-15.1217,72.5277,-16.3973,72.069,-17.544C71.6104,-18.6907,70.9654,-19.6797,70.134,-20.511C69.3027,-21.3423,68.3065,-21.9873,67.1455,-22.446C65.9845,-22.9047,64.7017,-23.134,63.297,-23.134C61.8064,-23.134,60.4232,-22.876,59.1475,-22.36C57.8719,-21.844,56.7825,-21.1273,55.8795,-20.21C54.9765,-19.2927,54.353,-18.2033,54.009,-16.942L58.567,-15.91C58.9684,-16.8847,59.5847,-17.6443,60.416,-18.189C61.2474,-18.7337,62.179,-19.006,63.211,-19.006C64.1857,-19.006,65.017,-18.791,65.705,-18.361C66.393,-17.931,66.9234,-17.3362,67.296,-16.5765C67.6687,-15.8168,67.855,-14.9353,67.855,-13.932L67.855,-12.513C67.0237,-12.857,66.1494,-13.1222,65.232,-13.3085C64.3147,-13.4948,63.3544,-13.588,62.351,-13.588C60.5164,-13.588,58.911,-13.287,57.535,-12.685C56.159,-12.083,55.0912,-11.2445,54.3315,-10.1695C53.5719,-9.0945,53.192,-7.84033,53.192,-6.407C53.192,-5.375,53.3927,-4.429,53.794,-3.569C54.1954,-2.709,54.7544,-1.96367,55.471,-1.333C56.1877,-0.702333,57.0262,-0.215,57.9865,0.129ZM58.696,-4.9235C58.352,-5.42517,58.18,-5.99133,58.18,-6.622C58.18,-7.68267,58.6315,-8.52833,59.5345,-9.159C60.4375,-9.78967,61.6344,-10.105,63.125,-10.105C63.9564,-10.105,64.7662,-10.0118,65.5545,-9.8255C66.3429,-9.63917,67.1097,-9.38833,67.855,-9.073L67.855,-8.557C67.855,-7.55367,67.6114,-6.65783,67.124,-5.8695C66.6367,-5.08117,65.9774,-4.45767,65.146,-3.999C64.3147,-3.54033,63.3687,-3.311,62.308,-3.311C61.4767,-3.311,60.7529,-3.45433,60.1365,-3.741C59.5202,-4.02767,59.04,-4.42183,58.696,-4.9235Z"
                        fill="#3F3D3D" fill-rule="evenodd"
                        transform="translate(159.466,225.493) translate(-159.466,-182.106)" />
                    <path
                        d="M84.8664,-0.258C86.142,0.344,87.5252,0.645,89.0159,0.645C90.6499,0.645,92.1262,0.265167,93.4449,-0.4945C94.7635,-1.25417,95.8242,-2.29333,96.6269,-3.612L96.8419,0L101.357,0L101.357,-31.992L96.4119,-31.992L96.4119,-19.522C95.6092,-20.6687,94.5915,-21.5573,93.3589,-22.188C92.1262,-22.8187,90.7645,-23.134,89.2739,-23.134C87.7545,-23.134,86.3427,-22.833,85.0384,-22.231C83.734,-21.629,82.5945,-20.7833,81.6199,-19.694C80.6452,-18.6047,79.8855,-17.329,79.3409,-15.867C78.7962,-14.405,78.5239,-12.8283,78.5239,-11.137C78.5239,-9.47433,78.789,-7.92633,79.3194,-6.493C79.8497,-5.05967,80.5879,-3.81267,81.5339,-2.752C82.4799,-1.69133,83.5907,-0.86,84.8664,-0.258ZM93.3589,-4.7945C92.3842,-4.1495,91.2805,-3.827,90.0479,-3.827C88.8152,-3.827,87.7115,-4.1495,86.7369,-4.7945C85.7622,-5.4395,84.9954,-6.321,84.4364,-7.439C83.8774,-8.557,83.5979,-9.81833,83.5979,-11.223C83.5979,-12.6563,83.8774,-13.932,84.4364,-15.05C84.9954,-16.168,85.7622,-17.0495,86.7369,-17.6945C87.7115,-18.3395,88.8152,-18.662,90.0479,-18.662C91.2805,-18.662,92.3842,-18.3395,93.3589,-17.6945C94.3335,-17.0495,95.1004,-16.168,95.6594,-15.05C96.2184,-13.932,96.4979,-12.6563,96.4979,-11.223C96.4979,-9.81833,96.2184,-8.557,95.6594,-7.439C95.1004,-6.321,94.3335,-5.4395,93.3589,-4.7945Z"
                        fill="#3F3D3D" fill-rule="evenodd"
                        transform="translate(159.466,225.493) translate(-159.466,-182.106)" />
                    <path
                        d="M113.579,-28.767C113.579,-28.2223,113.443,-27.7207,113.171,-27.262C112.898,-26.8033,112.533,-26.4378,112.074,-26.1655C111.615,-25.8932,111.114,-25.757,110.569,-25.757C110.024,-25.757,109.523,-25.8932,109.064,-26.1655C108.605,-26.4378,108.24,-26.8033,107.968,-27.262C107.695,-27.7207,107.559,-28.2223,107.559,-28.767C107.559,-29.3117,107.695,-29.8133,107.968,-30.272C108.24,-30.7307,108.605,-31.0962,109.064,-31.3685C109.523,-31.6408,110.024,-31.777,110.569,-31.777C111.114,-31.777,111.615,-31.6408,112.074,-31.3685C112.533,-31.0962,112.898,-30.7307,113.171,-30.272C113.443,-29.8133,113.579,-29.3117,113.579,-28.767Z"
                        fill="#3F3D3D" transform="translate(159.466,225.493) translate(-159.466,-182.106)" />
                    <path d="M108.118,0L108.118,-22.489L113.063,-22.489L113.063,0Z" fill="#3F3D3D"
                        transform="translate(159.466,225.493) translate(-159.466,-182.106)" />
                    <path
                        d="M119.817,0L119.817,-22.489L124.332,-22.489L124.504,-19.393C125.163,-20.5397,126.088,-21.4498,127.278,-22.1235C128.467,-22.7972,129.836,-23.134,131.384,-23.134C133.075,-23.134,134.545,-22.7327,135.792,-21.93C137.039,-21.1273,138.006,-19.995,138.694,-18.533C139.382,-17.071,139.726,-15.351,139.726,-13.373L139.726,0L134.781,0L134.781,-12.814C134.781,-14.6487,134.373,-16.082,133.556,-17.114C132.739,-18.146,131.599,-18.662,130.137,-18.662C129.105,-18.662,128.181,-18.4183,127.364,-17.931C126.547,-17.4437,125.909,-16.7843,125.45,-15.953C124.991,-15.1217,124.762,-14.1613,124.762,-13.072L124.762,0Z"
                        fill="#3F3D3D" transform="translate(159.466,225.493) translate(-159.466,-182.106)" />
                    <path
                        d="M151.774,-1.29C153.035,-0.716667,154.397,-0.43,155.859,-0.43C157.407,-0.43,158.811,-0.759667,160.073,-1.419C161.334,-2.07833,162.366,-2.98133,163.169,-4.128L163.169,-1.978C163.169,-0.602,162.911,0.594833,162.395,1.6125C161.879,2.63017,161.148,3.4185,160.202,3.9775C159.256,4.5365,158.152,4.816,156.891,4.816C155.715,4.816,154.655,4.55083,153.709,4.0205C152.763,3.49017,151.974,2.709,151.344,1.677L146.657,3.311C147.631,5.14567,148.979,6.579,150.699,7.611C152.419,8.643,154.425,9.159,156.719,9.159C158.439,9.159,159.994,8.88667,161.384,8.342C162.775,7.79733,163.971,7.01617,164.975,5.9985C165.978,4.98083,166.752,3.7625,167.297,2.3435C167.841,0.9245,168.114,-0.645,168.114,-2.365L168.114,-22.489L163.599,-22.489L163.427,-19.307C162.653,-20.511,161.628,-21.4498,160.352,-22.1235C159.077,-22.7972,157.665,-23.134,156.117,-23.134C154.626,-23.134,153.236,-22.8402,151.946,-22.2525C150.656,-21.6648,149.523,-20.855,148.549,-19.823C147.574,-18.791,146.822,-17.5798,146.291,-16.1895C145.761,-14.7992,145.496,-13.3013,145.496,-11.696C145.496,-10.0907,145.754,-8.60717,146.27,-7.2455C146.786,-5.88383,147.517,-4.69417,148.463,-3.6765C149.409,-2.65883,150.512,-1.86333,151.774,-1.29ZM160.137,-5.805C159.177,-5.203,158.095,-4.902,156.891,-4.902C155.687,-4.902,154.612,-5.203,153.666,-5.805C152.72,-6.407,151.967,-7.224,151.408,-8.256C150.849,-9.288,150.57,-10.4633,150.57,-11.782C150.57,-13.1007,150.849,-14.276,151.408,-15.308C151.967,-16.34,152.72,-17.157,153.666,-17.759C154.612,-18.361,155.687,-18.662,156.891,-18.662C158.095,-18.662,159.177,-18.361,160.137,-17.759C161.098,-17.157,161.857,-16.34,162.416,-15.308C162.975,-14.276,163.255,-13.1007,163.255,-11.782C163.255,-10.4633,162.975,-9.288,162.416,-8.256C161.857,-7.224,161.098,-6.407,160.137,-5.805Z"
                        fill="#3F3D3D" fill-rule="evenodd"
                        transform="translate(159.466,225.493) translate(-159.466,-182.106)" />
                    <path
                        d="M177.666,0.172C177.064,0.172,176.52,0.0286667,176.032,-0.258C175.545,-0.544667,175.151,-0.938833,174.85,-1.4405C174.549,-1.94217,174.398,-2.494,174.398,-3.096C174.398,-3.698,174.549,-4.24983,174.85,-4.7515C175.151,-5.25317,175.545,-5.64733,176.032,-5.934C176.52,-6.22067,177.064,-6.364,177.666,-6.364C178.268,-6.364,178.813,-6.22067,179.3,-5.934C179.788,-5.64733,180.182,-5.25317,180.483,-4.7515C180.784,-4.24983,180.934,-3.698,180.934,-3.096C180.934,-2.494,180.784,-1.94217,180.483,-1.4405C180.182,-0.938833,179.788,-0.544667,179.3,-0.258C178.813,0.0286667,178.268,0.172,177.666,0.172Z"
                        fill="#3F3D3D" opacity="0" transform="translate(159.466,225.493) translate(-159.466,-182.106)"
                        style="animation: 0.6s linear infinite both a0_o;" />
                    <path
                        d="M190.021,0.172C189.419,0.172,188.875,0.0286667,188.387,-0.258C187.9,-0.544667,187.506,-0.938833,187.205,-1.4405C186.904,-1.94217,186.753,-2.494,186.753,-3.096C186.753,-3.698,186.904,-4.24983,187.205,-4.7515C187.506,-5.25317,187.9,-5.64733,188.387,-5.934C188.875,-6.22067,189.419,-6.364,190.021,-6.364C190.623,-6.364,191.168,-6.22067,191.655,-5.934C192.143,-5.64733,192.537,-5.25317,192.838,-4.7515C193.139,-4.24983,193.289,-3.698,193.289,-3.096C193.289,-2.494,193.139,-1.94217,192.838,-1.4405C192.537,-0.938833,192.143,-0.544667,191.655,-0.258C191.168,0.0286667,190.623,0.172,190.021,0.172Z"
                        fill="#3F3D3D" opacity="0" transform="translate(159.466,225.493) translate(-159.466,-182.106)"
                        style="animation: 0.6s linear infinite both a1_o;" />
                    <path
                        d="M202.377,0.172C201.775,0.172,201.23,0.0286667,200.743,-0.258C200.255,-0.544667,199.861,-0.938833,199.56,-1.4405C199.259,-1.94217,199.109,-2.494,199.109,-3.096C199.109,-3.698,199.259,-4.24983,199.56,-4.7515C199.861,-5.25317,200.255,-5.64733,200.743,-5.934C201.23,-6.22067,201.775,-6.364,202.377,-6.364C202.979,-6.364,203.523,-6.22067,204.011,-5.934C204.498,-5.64733,204.892,-5.25317,205.193,-4.7515C205.494,-4.24983,205.645,-3.698,205.645,-3.096C205.645,-2.494,205.494,-1.94217,205.193,-1.4405C204.892,-0.938833,204.498,-0.544667,204.011,-0.258C203.523,0.0286667,202.979,0.172,202.377,0.172Z"
                        fill="#3F3D3D" opacity="0" transform="translate(159.466,225.493) translate(-159.466,-182.106)"
                        style="animation: 0.6s linear infinite both a2_o;" />
                </g>
            </g>
        </g>
    </g>
</svg>